<?xml version="1.0" encoding="iso-8859-1"?>
<!-- Generator: Adobe Illustrator 19.0.0, SVG Export Plug-In . SVG Version: 6.00 Build 0)  -->
<svg version="1.1" id="Layer_1" xmlns="http://www.w3.org/2000/svg" xmlns:xlink="http://www.w3.org/1999/xlink" x="0px" y="0px"
	 viewBox="0 0 512.586 512.586" style="enable-background:new 0 0 512.586 512.586;" xml:space="preserve">
<rect x="313.977" y="44.277" transform="matrix(-0.9552 0.296 -0.296 -0.9552 702.0241 101.7422)" style="fill:#F2F2F2;" width="58.667" height="119.468"/>
<path style="fill:#E4EAEF;" d="M366.16,78.453l-12.8-40.533l-55.467,17.067l16,52.267l32-13.867
	C354.427,90.186,360.827,84.853,366.16,78.453z"/>
<path style="fill:#40596B;" d="M415.227,144.587l-105.6,32c-4.267,1.067-6.4,5.333-5.333,9.6l14.933,48
	c1.067,4.267,5.333,6.4,9.6,5.333l120.533-36.267c5.333-2.133,7.467-8.533,3.2-12.8l-29.867-43.733
	C420.56,144.587,417.36,143.52,415.227,144.587z"/>
<path style="fill:#FFD15C;" d="M10.96,153.12L10.96,153.12c-11.733-32,7.467-67.2,40.533-76.8l262.4-74.667
	c21.333-6.4,44.8,6.4,52.267,27.733l0,0c7.467,21.333-3.2,44.8-23.467,54.4l-252.8,103.467
	C57.893,201.12,21.627,185.12,10.96,153.12z"/>
<circle style="fill:#FF7058;" cx="325.627" cy="42.187" r="20.267"/>
<path style="fill:#F1543F;" d="M325.627,27.253c10.667,0,19.2,7.467,20.267,18.133c0-1.067,0-2.133,0-3.2
	c0-11.733-9.6-20.267-20.267-20.267c-11.733,0-20.267,9.6-20.267,20.267c0,1.067,0,2.133,0,3.2
	C306.427,35.786,314.96,27.253,325.627,27.253z"/>
<path style="fill:#FCC854;" d="M134.693,98.72c-10.667-17.067-25.6-28.8-44.8-34.133L50.427,76.32
	c-33.067,9.6-51.2,44.8-39.467,76.8s48,48,78.933,34.133l78.933-33.067L134.693,98.72z"/>
<path style="fill:#F8B64C;" d="M290.427,377.12l-112,68.267l-165.333-272c-19.2-30.933-8.533-71.467,22.4-89.6l0,0
	c29.867-19.2,70.4-9.6,89.6,21.333L290.427,377.12z"/>
<rect x="0.293" y="461.387" style="fill:#ACB3BA;" width="512" height="51.2"/>
<circle style="fill:#FF7058;" cx="62.16" cy="130.72" r="27.733"/>
<path style="fill:#F1543F;" d="M37.627,142.453c-3.2-14.933,6.4-29.867,21.333-33.067c10.667-2.133,21.333,2.133,27.733,9.6
	c-5.333-11.733-18.133-19.2-30.933-16c-14.933,3.2-24.533,18.133-21.333,33.067c1.067,4.267,3.2,8.533,5.333,11.733
	C38.693,145.653,38.693,144.587,37.627,142.453z"/>
<path style="fill:#F4A13D;" d="M178.427,445.387l112-68.267l-67.2-109.867c-8.533-1.067-16-2.133-24.533-2.133
	c-40.533,0-77.867,13.867-106.667,37.333L178.427,445.387z"/>
<path style="fill:#40596B;" d="M357.627,461.387H39.76v-24.533c0-87.467,71.467-158.933,158.933-158.933l0,0
	c87.467,0,158.933,71.467,158.933,158.933V461.387z"/>
<g>
	<rect x="99.493" y="351.52" style="fill:#F2F2F2;" width="80" height="46.933"/>
	<rect x="217.893" y="351.52" style="fill:#F2F2F2;" width="80" height="46.933"/>
</g>
<g>
</g>
<g>
</g>
<g>
</g>
<g>
</g>
<g>
</g>
<g>
</g>
<g>
</g>
<g>
</g>
<g>
</g>
<g>
</g>
<g>
</g>
<g>
</g>
<g>
</g>
<g>
</g>
<g>
</g>
</svg>
